<svg xmlns="http://www.w3.org/2000/svg" viewBox="0 0 32 32">
  <!-- Dark background circle -->
  <circle cx="16" cy="16" r="16" fill="#0D0F0E"/>
  <!-- Red accent dot top right -->
  <circle cx="25" cy="7" r="3.5" fill="#C0392B"/>
  <!-- White tooth -->
  <path d="M8 11 C8 8 11 6 16 6 C21 6 24 8 24 11 C26 12 28 15 28 19 C28 24 25 29 22 29 C20 29 19 27 17.5 24 C17 23 16.6 22 16 22 C15.4 22 15 23 14.5 24 C13 27 12 29 10 29 C7 29 4 24 4 19 C4 15 6 12 8 11Z" fill="white"/>
  <!-- Subtle tooth ridge -->
  <path d="M11 10 C11 9 13 8.5 16 8.5 C19 8.5 21 9 21 10" stroke="#E8E0D8" stroke-width="0.8" fill="none" stroke-linecap="round"/>
</svg>
